<svg width="55" height="51" viewBox="0 0 55 51" fill="none" xmlns="http://www.w3.org/2000/svg">
<path d="M52.4648 28.375H29.3203L44.75 43.9023C45.3359 44.4883 46.3125 44.4883 46.8984 43.9023C50.707 40.3867 53.3438 35.6016 54.0273 30.1328C54.2227 29.2539 53.4414 28.375 52.4648 28.375ZM50.9023 22.125C50.1211 10.4062 40.8438 1.12891 29.125 0.347656C28.2461 0.25 27.5625 1.03125 27.5625 1.91016V23.6875H49.3398C50.2188 23.6875 51 23.0039 50.9023 22.125ZM22.875 28.375V5.23047C22.875 4.35156 21.9961 3.57031 21.1172 3.66797C9.39844 5.32812 0.511719 15.4844 1 27.6914C1.39062 40.1914 12.1328 50.4453 24.7305 50.25C29.6133 50.25 34.2031 48.6875 37.9141 45.9531C38.6953 45.4648 38.6953 44.293 38.0117 43.6094L22.875 28.375Z" fill="#14B1BB"/>
</svg>
