<svg width="57" height="51" viewBox="0 0 57 51" fill="none" xmlns="http://www.w3.org/2000/svg">
<path d="M56.25 23.6875C56.25 21.4414 54.9805 19.3906 53.125 18.3164V3.47266C53.125 2.59375 52.4414 0.25 50 0.25C49.2188 0.25 48.5352 0.542969 48.0469 1.03125L39.6484 7.67188C35.5469 10.9922 30.2734 12.75 25 12.75H6.25C2.73438 12.75 0 15.582 0 19V28.375C0 31.8906 2.73438 34.625 6.25 34.625H9.47266C9.375 35.6992 9.27734 36.7734 9.27734 37.75C9.27734 41.6562 10.1562 45.3672 11.8164 48.5898C12.3047 49.6641 13.3789 50.25 14.5508 50.25H21.7773C24.3164 50.25 25.8789 47.418 24.3164 45.3672C22.7539 43.2188 21.7773 40.6797 21.7773 37.75C21.7773 36.6758 21.9727 35.6992 22.168 34.625H25C30.2734 34.625 35.5469 36.4805 39.6484 39.8008L48.0469 46.4414C48.5352 46.9297 49.2188 47.125 49.9023 47.125C52.3438 47.125 53.0273 44.9766 53.0273 44V29.1562C54.9805 28.082 56.25 26.0312 56.25 23.6875ZM46.875 37.5547L43.5547 34.918C38.2812 30.7188 31.7383 28.375 25 28.375V19C31.7383 19 38.2812 16.7539 43.5547 12.5547L46.875 9.91797V37.5547Z" fill="#14B1BB"/>
</svg>
