<svg width="58" height="45" viewBox="0 0 58 45" fill="none" xmlns="http://www.w3.org/2000/svg">
<path d="M28.3438 11.8008L10.375 26.6445V42.5625C10.375 43.4414 11.0586 44.125 11.9375 44.125H22.875C23.6562 44.125 24.3398 43.4414 24.3398 42.5625V33.1875C24.3398 32.4062 25.1211 31.625 25.9023 31.625H32.1523C33.0312 31.625 33.7148 32.4062 33.7148 33.1875V42.5625C33.7148 43.4414 34.4961 44.125 35.2773 44.125H46.3125C47.0938 44.125 47.875 43.4414 47.875 42.5625V26.5469L29.8086 11.8008C29.6133 11.6055 29.3203 11.5078 29.125 11.5078C28.832 11.5078 28.5391 11.6055 28.3438 11.8008ZM56.7617 21.8594L48.6562 15.1211V1.64453C48.6562 0.960938 48.0703 0.472656 47.4844 0.472656H42.0156C41.332 0.472656 40.8438 0.960938 40.8438 1.64453V8.67578L32.0547 1.44922C31.2734 0.863281 30.1992 0.472656 29.125 0.472656C27.9531 0.472656 26.8789 0.863281 26.0977 1.44922L1.39062 21.8594C1.09766 22.0547 0.902344 22.4453 0.902344 22.7383C0.902344 23.0312 1.09766 23.3242 1.19531 23.5195L3.73438 26.5469C3.92969 26.8398 4.22266 26.9375 4.61328 26.9375C4.90625 26.9375 5.19922 26.8398 5.39453 26.6445L28.3438 7.79688C28.5391 7.60156 28.832 7.50391 29.125 7.50391C29.3203 7.50391 29.6133 7.60156 29.8086 7.79688L52.7578 26.6445C52.9531 26.8398 53.2461 26.9375 53.5391 26.9375C53.9297 26.9375 54.2227 26.8398 54.418 26.5469L56.957 23.5195C57.1523 23.3242 57.25 23.0312 57.25 22.7383C57.25 22.4453 57.0547 22.0547 56.7617 21.8594Z" fill="#14B1BB"/>
</svg>
